<?xml version="1.0" standalone="no"?>
<!DOCTYPE svg PUBLIC "-//W3C//DTD SVG 20010904//EN"
 "http://www.w3.org/TR/2001/REC-SVG-20010904/DTD/svg10.dtd">
<svg version="1.0" xmlns="http://www.w3.org/2000/svg"
 width="500.000000pt" height="500.000000pt" viewBox="0 0 500.000000 500.000000"
 preserveAspectRatio="xMidYMid meet">

<g transform="translate(0.000000,500.000000) scale(0.100000,-0.100000)"
fill="#cccccc" stroke="none">
<path d="M2633 4290 c-50 -10 -110 -40 -151 -75 l-30 -25 -483 0 -484 0 -50
-24 c-55 -25 -108 -79 -134 -135 -14 -33 -16 -146 -15 -1193 0 -1220 -1 -1188
44 -1188 9 0 24 8 33 18 16 17 17 112 17 1161 0 1281 -6 1187 73 1239 l41 27
434 3 c240 1 439 -1 443 -5 5 -5 -3 -32 -16 -61 l-24 -52 -404 0 c-300 0 -406
-3 -415 -12 -9 -9 -12 -294 -12 -1220 l0 -1208 -298 0 c-333 0 -342 -2 -342
-64 0 -49 28 -135 62 -188 58 -91 165 -153 284 -164 l71 -7 7 -114 c5 -92 11
-123 30 -161 30 -58 68 -95 126 -121 44 -20 59 -21 1270 -21 l1225 0 51 24
c28 13 67 40 87 61 72 74 67 -42 67 1661 0 1670 3 1574 -56 1651 -13 18 -46
45 -72 60 l-47 28 -495 3 -494 3 -33 25 c-84 64 -212 95 -310 74z m192 -114
c74 -35 108 -78 160 -201 25 -60 62 -148 82 -195 19 -47 39 -89 45 -95 5 -5
53 -12 106 -15 82 -4 103 -9 127 -28 28 -22 54 -57 55 -74 0 -5 -308 -8 -685
-8 -745 0 -709 -3 -663 55 31 39 77 55 161 55 43 0 80 5 90 13 14 10 56 104
148 330 49 121 140 187 258 187 48 0 79 -7 116 -24z m1105 -86 c43 -12 93 -62
109 -109 18 -54 15 -3023 -3 -3074 -18 -50 -42 -76 -91 -98 -38 -18 -97 -19
-1236 -19 l-1196 0 -44 23 c-70 37 -89 80 -89 204 l0 103 1133 2 1132 3 55 23
c71 30 130 79 169 140 64 100 61 22 61 1409 0 1238 0 1262 -19 1273 -13 6
-164 10 -423 10 l-403 0 -21 53 c-12 28 -20 55 -17 60 7 11 842 9 883 -3z
m-1643 -222 c-3 -7 -12 -32 -21 -54 l-17 -41 -72 -5 c-88 -6 -140 -31 -194
-92 -59 -67 -81 -160 -46 -198 15 -17 52 -18 772 -18 860 0 809 -5 797 76 -19
140 -132 234 -282 234 -57 0 -49 -8 -91 98 -4 9 70 12 351 12 l356 0 0 -1202
c0 -1291 1 -1265 -51 -1340 -93 -137 -289 -158 -407 -45 -44 42 -70 94 -83
165 -6 31 -18 63 -27 70 -12 9 -198 12 -849 12 l-833 0 0 1170 0 1170 351 0
c277 0 350 -3 346 -12z m935 -2493 c11 -33 35 -81 54 -107 l34 -48 -1073 0
-1072 0 -50 24 c-80 38 -124 89 -149 174 l-7 22 1121 -2 1121 -3 21 -60z"/>
<path d="M2665 4079 c-129 -41 -142 -225 -21 -280 52 -24 80 -23 133 1 55 25
83 70 83 134 0 103 -99 176 -195 145z m87 -106 c36 -32 10 -93 -40 -93 -30 0
-62 26 -62 49 0 51 64 79 102 44z"/>
<path d="M3216 3164 c-13 -12 -16 -40 -16 -139 0 -157 -2 -155 157 -155 153 0
153 0 153 159 0 95 -3 123 -16 135 -12 13 -40 16 -139 16 -99 0 -127 -3 -139
-16z m192 -137 l3 -58 -58 3 -58 3 -3 43 c-4 59 10 74 67 70 l46 -3 3 -58z"/>
<path d="M1932 3058 c-7 -7 -12 -21 -12 -33 0 -12 5 -26 12 -33 17 -17 1119
-17 1136 0 17 17 15 65 -4 72 -9 3 -264 6 -568 6 -416 0 -555 -3 -564 -12z"/>
<path d="M3216 2634 c-13 -12 -16 -40 -16 -138 0 -81 4 -126 12 -134 8 -8 55
-12 145 -12 121 0 133 2 143 19 5 11 10 71 10 135 0 150 5 146 -155 146 -99 0
-127 -3 -139 -16z m194 -134 l0 -61 -57 3 -58 3 -3 44 c-5 66 0 71 63 71 l55
0 0 -60z"/>
<path d="M1937 2532 c-21 -23 -22 -46 -1 -66 14 -14 78 -16 560 -16 357 0 552
4 565 10 12 7 19 21 19 40 0 19 -7 33 -19 40 -13 6 -208 10 -564 10 -514 0
-545 -1 -560 -18z"/>
<path d="M3210 2101 c-5 -11 -10 -70 -10 -131 0 -61 5 -120 10 -131 10 -17 22
-19 145 -19 123 0 135 2 145 19 13 25 13 237 0 262 -10 17 -22 19 -145 19
-123 0 -135 -2 -145 -19z m200 -131 l0 -61 -57 3 -58 3 -3 44 c-5 66 0 71 63
71 l55 0 0 -60z"/>
<path d="M1936 2004 c-9 -8 -16 -24 -16 -34 0 -10 7 -26 16 -34 14 -14 78 -16
560 -16 357 0 552 4 565 10 12 7 19 21 19 40 0 19 -7 33 -19 40 -13 6 -208 10
-565 10 -482 0 -546 -2 -560 -16z"/>
</g>
</svg>
